HIERARCHY
ROOT Hips
{
	OFFSET -0.001795 -0.223333 0.028219
	CHANNELS 6 Xposition Yposition Zposition Zrotation Yrotation Xrotation
	JOINT LeftUpLeg
	{
		OFFSET 0.069520 -0.091406 -0.006815
		CHANNELS 3 Zrotation Yrotation Xrotation
		JOINT LeftLeg
		{
			OFFSET 0.034277 -0.375199 -0.004496
			CHANNELS 3 Zrotation Yrotation Xrotation
			JOINT LeftFoot
			{
				OFFSET -0.013596 -0.397961 -0.043693
				CHANNELS 3 Zrotation Yrotation Xrotation
				JOINT LeftToe
				{
					OFFSET 0.026358 -0.055791 0.119288
					CHANNELS 3 Zrotation Yrotation Xrotation
					End Site
					{
						OFFSET 0.000000 0.000000 0.000000
					}
				}
			}
		}
	}
	JOINT RightUpLeg
	{
		OFFSET -0.067670 -0.090522 -0.004320
		CHANNELS 3 Zrotation Yrotation Xrotation
		JOINT RightLeg
		{
			OFFSET -0.038290 -0.382569 -0.008850
			CHANNELS 3 Zrotation Yrotation Xrotation
			JOINT RightFoot
			{
				OFFSET 0.015774 -0.398415 -0.042312
				CHANNELS 3 Zrotation Yrotation Xrotation
				JOINT RightToe
				{
					OFFSET -0.025372 -0.048144 0.123348
					CHANNELS 3 Zrotation Yrotation Xrotation
					End Site
					{
						OFFSET 0.000000 0.000000 0.000000
					}
				}
			}
		}
	}
	JOINT Spine
	{
		OFFSET -0.002533 0.108963 -0.026696
		CHANNELS 3 Zrotation Yrotation Xrotation
		JOINT Spine1
		{
			OFFSET 0.005487 0.135180 0.001092
			CHANNELS 3 Zrotation Yrotation Xrotation
			JOINT Spine2
			{
				OFFSET 0.001457 0.052922 0.025425
				CHANNELS 3 Zrotation Yrotation Xrotation
				JOINT Neck
				{
					OFFSET -0.002778 0.213870 -0.042857
					CHANNELS 3 Zrotation Yrotation Xrotation
					JOINT Head
					{
						OFFSET 0.005152 0.064970 0.051349
						CHANNELS 3 Zrotation Yrotation Xrotation
						End Site
						{
							OFFSET 0.000000 0.000000 0.000000
						}
					}
				}
				JOINT LeftShoulder
				{
					OFFSET 0.078845 0.121749 -0.034090
					CHANNELS 3 Zrotation Yrotation Xrotation
					JOINT LeftArm
					{
						OFFSET 0.090977 0.030469 -0.008868
						CHANNELS 3 Zrotation Yrotation Xrotation
						JOINT LeftForeArm
						{
							OFFSET 0.259612 -0.012772 -0.027456
							CHANNELS 3 Zrotation Yrotation Xrotation
							JOINT LeftHand
							{
								OFFSET 0.249234 0.008986 -0.001171
								CHANNELS 3 Zrotation Yrotation Xrotation
								End Site
								{
									OFFSET 0.000000 0.000000 0.000000
								}
							}
						}
					}
				}
				JOINT RightShoulder
				{
					OFFSET -0.081759 0.118833 -0.038615
					CHANNELS 3 Zrotation Yrotation Xrotation
					JOINT RightArm
					{
						OFFSET -0.096012 0.032551 -0.009143
						CHANNELS 3 Zrotation Yrotation Xrotation
						JOINT RightForeArm
						{
							OFFSET -0.253742 -0.013329 -0.021401
							CHANNELS 3 Zrotation Yrotation Xrotation
							JOINT RightHand
							{
								OFFSET -0.255298 0.007772 -0.005559
								CHANNELS 3 Zrotation Yrotation Xrotation
								End Site
								{
									OFFSET 0.000000 0.000000 0.000000
								}
							}
						}
					}
				}
			}
		}
	}
}
MOTION
Frames: 16
Frame Time: 0.050000
0.483622 0.193117 -0.465616 -5.760313 -32.521288 -80.478799 5.121514 3.431249 -38.562176 5.071529 1.043238 87.795232 1.839435 6.127925 7.944141 0.000000 0.000000 0.000000 -1.358447 3.532562 -22.448707 -0.902580 13.406999 61.851459 0.937484 -1.689539 6.624080 0.000000 0.000000 0.000000 -9.624277 2.139347 -34.787977 -2.990241 10.383799 44.869670 25.395005 8.537628 29.434042 -0.708165 -7.362523 49.573689 0.000000 0.000000 0.000000 -39.185735 -13.313355 7.513049 -16.696238 14.121966 -4.138602 118.888586 -79.448818 -106.813554 0.000000 0.000000 0.000000 42.389911 3.825206 4.022338 33.130486 11.754213 -4.551859 15.087728 70.659036 17.142659 0.000000 0.000000 0.000000
0.483375 0.190031 -0.464624 -4.500207 -32.822341 -81.358829 5.797016 3.775695 -37.081291 6.167880 0.446204 86.349366 0.891126 3.299352 4.216158 0.000000 0.000000 0.000000 -0.750313 3.995064 -23.511919 0.192494 13.260891 63.223387 0.025320 -4.801263 8.890439 0.000000 0.000000 0.000000 -8.885551 2.772069 -35.427369 -4.092096 10.377090 40.349852 25.477792 7.694249 32.534767 0.010592 -7.928083 48.544321 0.000000 0.000000 0.000000 -37.374078 -12.443191 7.472700 -18.681169 15.612326 -5.026542 144.120840 -78.814827 -134.822894 0.000000 0.000000 0.000000 40.322101 1.776256 1.728941 36.319264 8.478432 -5.701163 30.187221 70.225168 28.047808 0.000000 0.000000 0.000000
0.482884 0.184571 -0.463620 -3.575904 -33.143736 -82.392223 6.015186 3.703759 -34.957408 6.615440 0.669216 84.666462 1.968341 2.693605 -2.595758 0.000000 0.000000 0.000000 -0.423628 4.141566 -23.587051 0.766262 13.218583 63.726667 -1.053492 -6.892662 8.667470 0.000000 0.000000 0.000000 -8.402998 3.148299 -35.724696 -4.429280 9.415418 35.612525 24.451578 6.264011 36.208480 0.873693 -8.047568 47.037770 0.000000 0.000000 0.000000 -35.888547 -10.882211 7.380133 -21.182735 15.748543 -6.148214 161.979187 -79.682452 -156.461124 0.000000 0.000000 0.000000 37.296218 0.792925 0.071256 38.389429 5.501889 -6.782529 43.226688 67.279489 35.563811 0.000000 0.000000 0.000000
0.482194 0.180071 -0.462349 -2.339727 -33.870644 -83.617723 6.785194 4.042477 -32.947584 7.216060 0.856293 83.015034 1.334927 -0.551613 -7.232582 0.000000 0.000000 0.000000 1.078583 4.667180 -23.669904 1.496501 13.528406 65.313948 -2.639520 -9.197280 6.274192 0.000000 0.000000 0.000000 -7.087896 4.092970 -36.044369 -5.226023 9.779346 33.650604 24.526272 4.498262 36.773767 1.565761 -8.353980 48.027172 0.000000 0.000000 0.000000 -36.762682 -9.663904 7.805189 -21.525625 15.374945 -6.398688 165.019603 -80.673039 -160.251145 0.000000 0.000000 0.000000 34.894735 -0.088400 -1.570371 39.130074 3.675662 -7.147773 44.608031 63.702663 33.619098 0.000000 0.000000 0.000000
0.481062 0.173970 -0.460918 -2.739975 -34.384705 -83.917679 6.656983 3.864385 -31.911865 7.428176 0.707475 82.172836 1.508591 -1.750672 -10.548648 0.000000 0.000000 0.000000 1.174811 4.724159 -23.636603 2.390965 13.275909 66.828560 -3.496674 -10.142313 3.997470 0.000000 0.000000 0.000000 -6.228521 4.467766 -35.826923 -4.844382 7.667635 27.621559 22.849981 1.786820 40.605111 3.162475 -8.907464 44.901731 0.000000 0.000000 0.000000 -33.930381 -8.786089 8.815909 -24.511552 13.907187 -7.658823 163.355829 -81.595798 -158.278959 0.000000 0.000000 0.000000 30.651580 -0.999991 -3.475999 41.299504 1.531801 -8.034191 46.369826 59.007624 30.713819 0.000000 0.000000 0.000000
0.479902 0.169891 -0.459521 -2.523096 -34.409773 -84.904526 7.403426 4.122393 -30.896181 6.498112 1.344681 80.932740 0.763690 -2.956293 -9.814681 0.000000 0.000000 0.000000 1.426272 4.578218 -22.693227 1.911608 13.539496 66.559733 -2.920617 -9.019475 4.359425 0.000000 0.000000 0.000000 -5.545022 4.869995 -36.001109 -5.096315 6.228753 21.487131 21.611099 -0.439630 45.285379 4.038694 -8.317790 39.753972 0.000000 0.000000 0.000000 -29.989272 -7.803446 8.960043 -28.084126 10.526295 -8.856963 165.597776 -83.942860 -160.220858 0.000000 0.000000 0.000000 27.237750 -2.152157 -4.880409 43.118190 1.057963 -8.736492 45.081781 54.030048 26.144696 0.000000 0.000000 0.000000
0.478914 0.166393 -0.458540 -2.861464 -34.704876 -84.895607 7.577168 4.149238 -30.459333 6.109273 1.653434 80.293737 0.195682 -3.327645 -8.218593 0.000000 0.000000 0.000000 1.401975 4.371291 -21.885031 1.348908 13.531709 65.114205 -2.611446 -8.373953 4.369563 0.000000 0.000000 0.000000 -5.173316 5.067777 -36.007851 -3.766900 4.545849 18.236346 18.790133 -1.971373 45.779700 5.258299 -9.116037 35.703541 0.000000 0.000000 0.000000 -27.464062 -7.403416 9.242828 -30.567315 8.354998 -9.420799 140.235096 -85.666273 -132.418953 0.000000 0.000000 0.000000 24.224162 -2.912930 -6.011842 44.994550 -0.564154 -9.350753 45.411319 51.326858 23.745250 0.000000 0.000000 0.000000
0.478173 0.162759 -0.457825 -3.188729 -34.531444 -84.780069 7.649923 4.154123 -30.407749 5.653812 1.635563 79.965603 0.274060 -2.975421 -7.846859 0.000000 0.000000 0.000000 0.159297 4.101817 -22.074840 2.104227 12.883419 65.400470 -2.168245 -7.314656 4.237145 0.000000 0.000000 0.000000 -5.463757 5.233547 -37.068470 -2.839287 3.670046 17.426555 17.811846 -3.453319 45.231222 4.776544 -7.168475 32.960892 0.000000 0.000000 0.000000 -25.558375 -7.530435 9.496799 -32.876749 4.791588 -9.484050 92.216178 -84.454753 -80.407397 0.000000 0.000000 0.000000 20.543222 -3.887420 -6.368776 46.915173 -1.805893 -10.130096 46.188371 50.213753 22.860220 0.000000 0.000000 0.000000
0.477547 0.158502 -0.457366 -3.351570 -34.209634 -85.058329 8.598763 4.400233 -29.564897 4.072010 2.614640 76.845346 -0.613661 -2.819700 -4.180504 0.000000 0.000000 0.000000 0.032538 3.835558 -21.224269 0.623449 13.218391 63.209009 -0.696626 -5.128915 6.355688 0.000000 0.000000 0.000000 -5.218571 5.111419 -36.685054 -2.379865 2.844396 14.472375 16.410747 -4.275659 45.795398 5.145948 -7.203009 25.761244 0.000000 0.000000 0.000000 -21.989401 -7.947606 9.292889 -35.688025 2.982794 -9.648404 73.337330 -83.885543 -60.316083 0.000000 0.000000 0.000000 15.892440 -5.885746 -6.810971 50.584162 -2.737984 -11.444764 48.724077 48.252950 22.398818 0.000000 0.000000 0.000000
0.476677 0.155694 -0.457056 -3.828283 -33.514491 -84.858473 8.345141 4.128265 -29.253919 2.867728 3.158557 75.653954 0.584753 -0.470408 -4.281637 0.000000 0.000000 0.000000 -0.919440 3.665960 -21.592154 1.588750 11.925591 62.743621 -0.192226 -5.125412 8.656515 0.000000 0.000000 0.000000 -5.476573 4.936356 -37.046640 -1.782909 2.266463 13.623706 15.331560 -4.988559 45.383136 4.364412 -5.859926 21.856729 0.000000 0.000000 0.000000 -19.068664 -6.733068 7.937037 -38.832573 0.930347 -9.711997 59.841604 -85.116453 -46.898405 0.000000 0.000000 0.000000 13.631479 -6.787135 -6.888034 52.796441 -4.265188 -12.649202 50.805168 48.896033 23.466050 0.000000 0.000000 0.000000
0.475727 0.154121 -0.456763 -3.905321 -32.426895 -84.973885 8.148039 3.863189 -28.943524 1.094122 4.099891 73.551076 1.377892 2.057692 -1.802297 0.000000 0.000000 0.000000 -1.603645 3.455551 -21.569919 1.108569 11.769089 62.259526 0.229915 -5.071739 10.502663 0.000000 0.000000 0.000000 -5.084717 5.074104 -37.579831 -1.519722 1.754773 11.464135 14.137603 -5.067232 45.881672 3.704512 -5.163614 14.113450 0.000000 0.000000 0.000000 -13.630577 -5.965941 6.086680 -44.211848 1.027553 -10.285448 11.622635 -85.258337 -0.918431 0.000000 0.000000 0.000000 9.044837 -9.484321 -6.954141 57.863404 -6.241217 -15.291899 52.009827 46.480846 22.823186 0.000000 0.000000 0.000000
0.474886 0.154432 -0.456918 -3.647256 -31.865155 -84.622076 9.169898 4.583004 -30.881721 -0.494819 4.865291 72.313685 0.380518 2.990252 6.042301 0.000000 0.000000 0.000000 -1.568883 3.808511 -23.086944 1.181637 11.383895 61.828836 0.902088 -5.893618 15.498647 0.000000 0.000000 0.000000 -5.692571 5.313407 -39.950512 0.169343 0.672401 10.977651 11.988521 -5.353194 45.288980 3.074065 -4.358029 8.297104 0.000000 0.000000 0.000000 -6.912689 -4.122888 3.632833 -50.307786 3.335394 -11.121099 -45.881008 -81.845830 51.045896 0.000000 0.000000 0.000000 4.249300 -8.618264 -5.282631 63.230416 -8.949871 -18.657682 52.933864 47.079497 23.352965 0.000000 0.000000 0.000000
0.474122 0.155275 -0.457488 -4.220540 -30.918179 -85.255895 9.613114 4.288062 -28.495424 -5.140090 8.061497 68.783526 4.281106 9.143649 6.304641 0.000000 0.000000 0.000000 -1.388617 3.446093 -21.507994 0.770017 10.864638 60.690499 0.854343 -6.280094 16.442390 0.000000 0.000000 0.000000 -5.253150 4.686521 -37.834929 -1.830252 1.549812 8.452517 14.751565 -4.142703 45.709263 3.601300 -4.806910 -3.489075 0.000000 0.000000 0.000000 -4.288108 -6.891398 4.129307 -52.957892 4.486030 -11.853609 -36.803829 -79.577713 40.031235 0.000000 0.000000 0.000000 -0.711828 -14.832986 -6.330616 66.529986 -9.712918 -20.329514 55.113787 40.343203 21.289508 0.000000 0.000000 0.000000
0.473143 0.156098 -0.458540 -2.282771 -30.442646 -86.421153 10.019799 4.260758 -26.217813 -8.079896 10.176857 62.822432 3.198833 8.308045 10.780141 0.000000 0.000000 0.000000 -1.816017 3.223002 -21.041164 0.894416 10.837602 59.292676 1.375767 -5.297385 15.703688 0.000000 0.000000 0.000000 -3.817252 5.707908 -38.476727 -1.283928 1.359023 9.674133 10.870432 -4.121626 44.862843 -1.006701 -0.411500 -3.184917 0.000000 0.000000 0.000000 0.701853 -0.841579 0.509686 -57.026579 7.809409 -12.991801 -45.494609 -74.962609 45.110826 0.000000 0.000000 0.000000 -0.275909 -12.507936 -5.536090 68.317776 -11.624267 -22.090223 53.967394 44.016864 22.682609 0.000000 0.000000 0.000000
0.471740 0.159025 -0.459906 -3.891520 -30.200086 -85.086476 10.471717 3.984961 -23.662625 -11.485708 10.842725 55.354616 3.043066 8.788589 14.867866 0.000000 0.000000 0.000000 -1.146434 2.996059 -19.256997 -1.021476 10.181321 54.110521 2.172771 -5.507191 19.107116 0.000000 0.000000 0.000000 -5.837333 4.390553 -38.221417 -0.215458 0.480348 6.493714 11.369712 -4.237582 45.501236 -0.082457 -1.403422 -5.710322 0.000000 0.000000 0.000000 2.604168 -1.473442 0.465253 -58.155430 10.375159 -13.954399 -43.222010 -70.678440 39.620569 0.000000 0.000000 0.000000 -1.537028 -13.532996 -5.554883 67.008216 -14.403362 -23.257986 59.903764 41.899440 23.490357 0.000000 0.000000 0.000000
0.469603 0.158220 -0.461505 -3.810410 -30.065291 -84.897100 10.708205 3.852085 -21.694891 -12.452460 10.317030 49.801138 3.010198 9.068424 17.259121 0.000000 0.000000 0.000000 -0.909818 2.802471 -18.020529 -1.375540 9.648359 51.551960 1.407200 -6.711917 18.598600 0.000000 0.000000 0.000000 -5.678238 4.426425 -37.943221 -0.178424 0.442957 6.255042 10.908193 -4.677305 44.663229 -1.277434 -0.443238 -7.178402 0.000000 0.000000 0.000000 2.130239 -0.533197 0.180036 -57.329924 11.857588 -14.303583 -43.894893 -66.698662 37.329600 0.000000 0.000000 0.000000 -2.152911 -13.254869 -5.260063 66.585377 -14.714142 -23.291515 59.851863 39.404850 21.544150 0.000000 0.000000 0.000000
